<svg xmlns="http://www.w3.org/2000/svg" xmlns:xlink="http://www.w3.org/1999/xlink" viewBox="0 0 534.04 520.49"><defs><style>.cls-1{isolation:isolate;}.cls-2{fill:#8082be;mix-blend-mode:lighten;}.cls-10,.cls-11,.cls-12,.cls-13,.cls-14,.cls-15,.cls-16,.cls-24,.cls-3,.cls-4,.cls-5{opacity:0.5;}.cls-3{fill:url(#Áåçûìÿííûé_ãðàäèåíò_22);}.cls-4{fill:url(#Áåçûìÿííûé_ãðàäèåíò_254);}.cls-5{fill:url(#Áåçûìÿííûé_ãðàäèåíò_22-2);}.cls-6{fill:url(#Áåçûìÿííûé_ãðàäèåíò_18);}.cls-7{fill:#bdbbdd;}.cls-8{fill:#fff;}.cls-9{fill:#19134b;}.cls-10{fill:url(#Áåçûìÿííûé_ãðàäèåíò_254-2);}.cls-11{fill:url(#Áåçûìÿííûé_ãðàäèåíò_254-3);}.cls-12{fill:url(#Áåçûìÿííûé_ãðàäèåíò_254-4);}.cls-13{fill:url(#Áåçûìÿííûé_ãðàäèåíò_254-5);}.cls-14,.cls-17,.cls-25,.cls-33,.cls-34,.cls-35,.cls-36{fill:#6cc9cc;}.cls-15{fill:url(#Áåçûìÿííûé_ãðàäèåíò_254-6);}.cls-16{fill:url(#Áåçûìÿííûé_ãðàäèåíò_254-7);}.cls-17{opacity:0.8;}.cls-18,.cls-41{opacity:0.11;}.cls-19{fill:url(#Áåçûìÿííûé_ãðàäèåíò_22-3);}.cls-20{fill:url(#Áåçûìÿííûé_ãðàäèåíò_22-4);}.cls-21{fill:url(#Áåçûìÿííûé_ãðàäèåíò_22-5);}.cls-22{fill:url(#Áåçûìÿííûé_ãðàäèåíò_22-6);}.cls-23,.cls-31,.cls-46{opacity:0.71;}.cls-23{fill:url(#Áåçûìÿííûé_ãðàäèåíò_22-7);}.cls-26{fill:url(#Áåçûìÿííûé_ãðàäèåíò_22-9);}.cls-27{fill:url(#Áåçûìÿííûé_ãðàäèåíò_22-10);}.cls-28{fill:url(#Áåçûìÿííûé_ãðàäèåíò_22-11);}.cls-29{fill:url(#Áåçûìÿííûé_ãðàäèåíò_22-12);}.cls-30{fill:url(#Áåçûìÿííûé_ãðàäèåíò_22-13);}.cls-31{fill:url(#Áåçûìÿííûé_ãðàäèåíò_22-14);}.cls-32{fill:url(#Áåçûìÿííûé_ãðàäèåíò_22-16);}.cls-33{opacity:0.5;}.cls-34{opacity:0.75;}.cls-35{opacity:0.88;}.cls-36{opacity:0.97;}.cls-37{fill:url(#Áåçûìÿííûé_ãðàäèåíò_22-17);}.cls-38{fill:url(#Áåçûìÿííûé_ãðàäèåíò_22-18);}.cls-39{fill:url(#Áåçûìÿííûé_ãðàäèåíò_22-19);}.cls-40{fill:url(#Áåçûìÿííûé_ãðàäèåíò_22-20);}.cls-41{fill:url(#Áåçûìÿííûé_ãðàäèåíò_22-21);}.cls-42{fill:url(#Áåçûìÿííûé_ãðàäèåíò_22-22);}.cls-43{fill:url(#Áåçûìÿííûé_ãðàäèåíò_22-23);}.cls-44{fill:url(#Áåçûìÿííûé_ãðàäèåíò_22-24);}.cls-45{fill:url(#Áåçûìÿííûé_ãðàäèåíò_22-25);}.cls-46{fill:url(#Áåçûìÿííûé_ãðàäèåíò_22-26);}.cls-47{fill:url(#Áåçûìÿííûé_ãðàäèåíò_22-28);}.cls-48{fill:#211c58;opacity:0.2;}.cls-49{fill:#211b57;}.cls-50{fill:#282567;}.cls-51{fill:#464099;}.cls-52{fill:url(#Áåçûìÿííûé_ãðàäèåíò_22-29);}.cls-53{fill:url(#Áåçûìÿííûé_ãðàäèåíò_22-30);}.cls-54{fill:#f0f5fb;}.cls-55{fill:#fbd0c4;}.cls-56{fill:#4a4a9d;}.cls-57{fill:#aa8282;}.cls-58{fill:#c3cad4;}.cls-59{fill:#e1b0a5;}.cls-60{fill:url(#Áåçûìÿííûé_ãðàäèåíò_22-31);}.cls-61{fill:#936d6d;}</style><linearGradient id="Áåçûìÿííûé_ãðàäèåíò_22" x1="142.93" y1="319.17" x2="210.9" y2="319.17" gradientUnits="userSpaceOnUse"><stop offset="0" stop-color="#5963ac"/><stop offset="0.16" stop-color="#5e7db4"/><stop offset="0.39" stop-color="#649ebf"/><stop offset="0.61" stop-color="#68b6c6"/><stop offset="0.82" stop-color="#6bc4ca"/><stop offset="1" stop-color="#6cc9cc"/></linearGradient><linearGradient id="Áåçûìÿííûé_ãðàäèåíò_254" x1="323.91" y1="319.06" x2="391.51" y2="319.06" gradientUnits="userSpaceOnUse"><stop offset="0" stop-color="#6cc9cc"/><stop offset="0.18" stop-color="#6bc4ca"/><stop offset="0.39" stop-color="#68b6c6"/><stop offset="0.61" stop-color="#649ebf"/><stop offset="0.84" stop-color="#5e7db4"/><stop offset="1" stop-color="#5963ac"/></linearGradient><linearGradient id="Áåçûìÿííûé_ãðàäèåíò_22-2" x1="139.49" y1="430.58" x2="394.13" y2="430.58" xlink:href="#Áåçûìÿííûé_ãðàäèåíò_22"/><linearGradient id="Áåçûìÿííûé_ãðàäèåíò_18" x1="100.35" y1="261.38" x2="386.18" y2="261.38" gradientUnits="userSpaceOnUse"><stop offset="0" stop-color="#5963ac"/><stop offset="0.17" stop-color="#6069af"/><stop offset="0.41" stop-color="#747ab9"/><stop offset="0.7" stop-color="#9497c9"/><stop offset="1" stop-color="#bdbbdd"/></linearGradient><linearGradient id="Áåçûìÿííûé_ãðàäèåíò_254-2" x1="181.24" y1="222.75" x2="352.8" y2="222.75" xlink:href="#Áåçûìÿííûé_ãðàäèåíò_254"/><linearGradient id="Áåçûìÿííûé_ãðàäèåíò_254-3" x1="267.02" y1="191.75" x2="352.8" y2="191.75" xlink:href="#Áåçûìÿííûé_ãðàäèåíò_254"/><linearGradient id="Áåçûìÿííûé_ãðàäèåíò_254-4" x1="181.24" y1="191.75" x2="267.02" y2="191.75" xlink:href="#Áåçûìÿííûé_ãðàäèåíò_254"/><linearGradient id="Áåçûìÿííûé_ãðàäèåíò_254-5" x1="181.24" y1="210.27" x2="352.8" y2="210.27" xlink:href="#Áåçûìÿííûé_ãðàäèåíò_254"/><linearGradient id="Áåçûìÿííûé_ãðàäèåíò_254-6" x1="267.02" y1="241.27" x2="352.8" y2="241.27" xlink:href="#Áåçûìÿííûé_ãðàäèåíò_254"/><linearGradient id="Áåçûìÿííûé_ãðàäèåíò_254-7" x1="181.24" y1="241.27" x2="267.02" y2="241.27" xlink:href="#Áåçûìÿííûé_ãðàäèåíò_254"/><linearGradient id="Áåçûìÿííûé_ãðàäèåíò_22-3" x1="0" y1="365.98" x2="189.43" y2="365.98" xlink:href="#Áåçûìÿííûé_ãðàäèåíò_22"/><linearGradient id="Áåçûìÿííûé_ãðàäèåíò_22-4" x1="0" y1="351.41" x2="189.43" y2="351.41" xlink:href="#Áåçûìÿííûé_ãðàäèåíò_22"/><linearGradient id="Áåçûìÿííûé_ãðàäèåíò_22-5" x1="0" y1="336.84" x2="189.43" y2="336.84" xlink:href="#Áåçûìÿííûé_ãðàäèåíò_22"/><linearGradient id="Áåçûìÿííûé_ãðàäèåíò_22-6" x1="0" y1="322.26" x2="189.43" y2="322.26" xlink:href="#Áåçûìÿííûé_ãðàäèåíò_22"/><linearGradient id="Áåçûìÿííûé_ãðàäèåíò_22-7" x1="0" y1="336.91" x2="189.43" y2="336.91" xlink:href="#Áåçûìÿííûé_ãðàäèåíò_22"/><linearGradient id="Áåçûìÿííûé_ãðàäèåíò_22-9" x1="0" y1="348.53" x2="189.43" y2="348.53" xlink:href="#Áåçûìÿííûé_ãðàäèåíò_22"/><linearGradient id="Áåçûìÿííûé_ãðàäèåíò_22-10" x1="344.61" y1="365.98" x2="534.04" y2="365.98" xlink:href="#Áåçûìÿííûé_ãðàäèåíò_22"/><linearGradient id="Áåçûìÿííûé_ãðàäèåíò_22-11" x1="344.61" y1="351.41" x2="534.04" y2="351.41" xlink:href="#Áåçûìÿííûé_ãðàäèåíò_22"/><linearGradient id="Áåçûìÿííûé_ãðàäèåíò_22-12" x1="344.61" y1="336.84" x2="534.04" y2="336.84" xlink:href="#Áåçûìÿííûé_ãðàäèåíò_22"/><linearGradient id="Áåçûìÿííûé_ãðàäèåíò_22-13" x1="344.61" y1="322.26" x2="534.04" y2="322.26" xlink:href="#Áåçûìÿííûé_ãðàäèåíò_22"/><linearGradient id="Áåçûìÿííûé_ãðàäèåíò_22-14" x1="344.61" y1="336.91" x2="534.04" y2="336.91" xlink:href="#Áåçûìÿííûé_ãðàäèåíò_22"/><linearGradient id="Áåçûìÿííûé_ãðàäèåíò_22-16" x1="344.61" y1="348.53" x2="534.04" y2="348.53" xlink:href="#Áåçûìÿííûé_ãðàäèåíò_22"/><linearGradient id="Áåçûìÿííûé_ãðàäèåíò_22-17" x1="-4922.13" y1="470.01" x2="-4744.04" y2="470.01" gradientTransform="matrix(-1, 0, 0, 1, -4566.43, 0)" xlink:href="#Áåçûìÿííûé_ãðàäèåíò_22"/><linearGradient id="Áåçûìÿííûé_ãðàäèåíò_22-18" x1="-4922.13" y1="456.31" x2="-4744.04" y2="456.31" gradientTransform="matrix(-1, 0, 0, 1, -4566.43, 0)" xlink:href="#Áåçûìÿííûé_ãðàäèåíò_22"/><linearGradient id="Áåçûìÿííûé_ãðàäèåíò_22-19" x1="-4922.13" y1="442.61" x2="-4744.04" y2="442.61" gradientTransform="matrix(-1, 0, 0, 1, -4566.43, 0)" xlink:href="#Áåçûìÿííûé_ãðàäèåíò_22"/><linearGradient id="Áåçûìÿííûé_ãðàäèåíò_22-20" x1="-4922.13" y1="428.91" x2="-4744.04" y2="428.91" gradientTransform="matrix(-1, 0, 0, 1, -4566.43, 0)" xlink:href="#Áåçûìÿííûé_ãðàäèåíò_22"/><linearGradient id="Áåçûìÿííûé_ãðàäèåíò_22-21" x1="-4922.13" y1="449.46" x2="-4744.04" y2="449.46" gradientTransform="matrix(-1, 0, 0, 1, -4566.43, 0)" xlink:href="#Áåçûìÿííûé_ãðàäèåíò_22"/><linearGradient id="Áåçûìÿííûé_ãðàäèåíò_22-22" x1="-4941.06" y1="405.66" x2="-4725.11" y2="405.66" gradientTransform="matrix(-1, 0, 0, 1, -4566.43, 0)" xlink:href="#Áåçûìÿííûé_ãðàäèåíò_22"/><linearGradient id="Áåçûìÿííûé_ãðàäèåíò_22-23" x1="-4941.06" y1="389.05" x2="-4725.11" y2="389.05" gradientTransform="matrix(-1, 0, 0, 1, -4566.43, 0)" xlink:href="#Áåçûìÿííûé_ãðàäèåíò_22"/><linearGradient id="Áåçûìÿííûé_ãðàäèåíò_22-24" x1="-4941.06" y1="372.43" x2="-4725.11" y2="372.43" gradientTransform="matrix(-1, 0, 0, 1, -4566.43, 0)" xlink:href="#Áåçûìÿííûé_ãðàäèåíò_22"/><linearGradient id="Áåçûìÿííûé_ãðàäèåíò_22-25" x1="-4941.06" y1="355.82" x2="-4725.11" y2="355.82" gradientTransform="matrix(-1, 0, 0, 1, -4566.43, 0)" xlink:href="#Áåçûìÿííûé_ãðàäèåíò_22"/><linearGradient id="Áåçûìÿííûé_ãðàäèåíò_22-26" x1="-4941.06" y1="380.74" x2="-4725.11" y2="380.74" gradientTransform="matrix(-1, 0, 0, 1, -4566.43, 0)" xlink:href="#Áåçûìÿííûé_ãðàäèåíò_22"/><linearGradient id="Áåçûìÿííûé_ãðàäèåíò_22-28" x1="-4941.06" y1="385.76" x2="-4725.11" y2="385.76" gradientTransform="matrix(-1, 0, 0, 1, -4566.43, 0)" xlink:href="#Áåçûìÿííûé_ãðàäèåíò_22"/><linearGradient id="Áåçûìÿííûé_ãðàäèåíò_22-29" x1="-4578.58" y1="416.45" x2="-4555.79" y2="416.45" gradientTransform="matrix(-1, 0.06, 0.06, 1, -4280.22, 83.93)" xlink:href="#Áåçûìÿííûé_ãðàäèåíò_22"/><linearGradient id="Áåçûìÿííûé_ãðàäèåíò_22-30" x1="-4546.36" y1="423.84" x2="-4498.69" y2="423.84" gradientTransform="matrix(-1, 0.06, 0.06, 1, -4280.22, 83.93)" xlink:href="#Áåçûìÿííûé_ãðàäèåíò_22"/><linearGradient id="Áåçûìÿííûé_ãðàäèåíò_22-31" x1="-4568.27" y1="363.39" x2="-4490.73" y2="363.39" gradientTransform="matrix(-1, 0.06, 0.06, 1, -4280.22, 83.93)" xlink:href="#Áåçûìÿííûé_ãðàäèåíò_22"/></defs><title>website-banners-creatives-alabs</title><g class="cls-1"><g id="Layer_1" data-name="Layer 1"><path class="cls-2" d="M267,332.16a9.54,9.54,0,0,1-4.67-1.09l-105-60.63a3.71,3.71,0,0,1-2.1-3.16c0-1.46,1-2.88,2.81-3.9l103.61-59.83c3.17-1.82,7.83-2,10.6-.4l105,60.63a3.71,3.71,0,0,1,2.1,3.17c0,1.45-1,2.87-2.8,3.89L273,330.67A12.18,12.18,0,0,1,267,332.16Zm-3.85-2.5c2.24,1.3,6.36,1.11,9-.4l103.61-59.83a3.32,3.32,0,0,0,2-2.49,2.19,2.19,0,0,0-1.28-1.75l-105-60.63c-2.24-1.29-6.36-1.11-9,.4L158.84,264.79a3.33,3.33,0,0,0-2,2.49,2.2,2.2,0,0,0,1.29,1.75Z"/><path class="cls-3" d="M143.75,339.13a.81.81,0,0,1-.71-.4.83.83,0,0,1,.3-1.12l66.34-38.3a.82.82,0,0,1,1.11.3.81.81,0,0,1-.3,1.11L144.15,339A.71.71,0,0,1,143.75,339.13Z"/><path class="cls-4" d="M390.69,338.92a.8.8,0,0,1-.4-.11l-66-38.09a.81.81,0,0,1,.81-1.41l66,38.09a.81.81,0,0,1-.41,1.52Z"/><path class="cls-5" d="M267,466.85a15.45,15.45,0,0,1-7.73-2.07C232.25,449.1,142.2,397,140,396.08a.78.78,0,0,1-.52-1,.85.85,0,0,1,1-.54c1.4.4,118.36,68.14,119.54,68.82a13.85,13.85,0,0,0,13.85,0l119-68.94a.81.81,0,0,1,.81,1.41l-119,68.94A15.4,15.4,0,0,1,267,466.85Z"/><polygon class="cls-6" points="378.55 222.74 378.55 235.63 267.02 300.02 155.5 235.63 155.5 222.74 378.55 222.74"/><polygon class="cls-7" points="267.02 287.13 155.5 222.74 267.02 158.35 378.55 222.74 267.02 287.13"/><polygon class="cls-8" points="267.02 285.62 156.8 221.99 155.5 222.74 267.02 287.13 378.55 222.74 377.25 221.99 267.02 285.62"/><polygon class="cls-9" points="267.02 272.28 181.24 222.75 267.02 173.23 352.8 222.75 267.02 272.28"/><polygon class="cls-10" points="267.02 272.28 181.24 222.75 267.02 173.23 352.8 222.75 267.02 272.28"/><polygon class="cls-11" points="267.02 160.74 352.8 210.27 352.8 222.75 267.02 173.23 267.02 160.74"/><polygon class="cls-12" points="267.02 173.23 181.24 222.75 181.24 210.26 267.02 160.74 267.02 173.23"/><polygon class="cls-13" points="267.02 259.79 181.24 210.26 267.02 160.74 352.8 210.27 267.02 259.79"/><polygon class="cls-14" points="267.02 230.06 232.75 210.26 267.02 190.48 301.3 210.27 267.02 230.06"/><polygon class="cls-14" points="267.02 192.3 299.72 211.18 301.3 210.27 267.02 190.48 232.75 210.26 234.32 211.18 267.02 192.3"/><polygon class="cls-15" points="267.02 259.79 267.02 272.28 352.8 222.75 352.8 210.27 267.02 259.79"/><polygon class="cls-16" points="181.24 210.26 181.24 222.75 267.02 272.28 267.02 259.79 181.24 210.26"/><polygon class="cls-17" points="267.02 258.43 182.42 209.58 181.24 210.26 267.02 259.79 352.8 210.27 351.62 209.59 267.02 258.43"/><g class="cls-18"><path class="cls-19" d="M102,314.24a14.54,14.54,0,0,0-14.52,0L1,364.06a2,2,0,0,0,0,3.54L88.24,418a12.8,12.8,0,0,0,12.81,0l87.36-50.31a2,2,0,0,0,0-3.53Z"/></g><g class="cls-18"><path class="cls-20" d="M102,299.67a14.51,14.51,0,0,0-14.52,0L1,349.49A2,2,0,0,0,1,353l87.22,50.36a12.8,12.8,0,0,0,12.81,0l87.36-50.31a2,2,0,0,0,0-3.54Z"/></g><g class="cls-18"><path class="cls-21" d="M102,285.09a14.54,14.54,0,0,0-14.52,0L1,334.91a2,2,0,0,0,0,3.54l87.22,50.36a12.8,12.8,0,0,0,12.81,0l87.36-50.31a2,2,0,0,0,0-3.54Z"/></g><g class="cls-18"><path class="cls-22" d="M102,270.52a14.56,14.56,0,0,0-14.52,0L1,320.34a2,2,0,0,0,0,3.54l87.22,50.36a12.8,12.8,0,0,0,12.81,0l87.36-50.31a2,2,0,0,0,0-3.54Z"/></g><path class="cls-23" d="M188.41,320.39,102,270.52a14.56,14.56,0,0,0-14.52,0L1,320.34a2,2,0,0,0-1,1.77v29.3a2,2,0,0,0,1,1.77l87.22,50.36a12.85,12.85,0,0,0,12.81,0l87.36-50.31a2,2,0,0,0,1-1.77v-29.3h0A2,2,0,0,0,188.41,320.39Z"/><g class="cls-18"><path class="cls-22" d="M102,270.52a14.56,14.56,0,0,0-14.52,0L1,320.34a2,2,0,0,0,0,3.54l87.22,50.36a12.8,12.8,0,0,0,12.81,0l87.36-50.31a2,2,0,0,0,0-3.54Z"/></g><g class="cls-24"><path class="cls-25" d="M97.82,299.08a6.17,6.17,0,0,0-6.15,0L52.91,321.41a.9.9,0,0,0,0,1.57l38.92,22.47a5.71,5.71,0,0,0,5.71,0l39-22.44a.91.91,0,0,0,0-1.58Z"/></g><path class="cls-25" d="M52.91,322.81l38.76-22.33a6.17,6.17,0,0,1,6.15,0l38.7,22.35s0,.06.09.09a.9.9,0,0,0-.09-1.49l-38.7-22.35a6.17,6.17,0,0,0-6.15,0L52.91,321.41a.9.9,0,0,0-.09,1.49S52.87,322.83,52.91,322.81Z"/><path class="cls-26" d="M188.41,321.91l-87.36,50.31a12.8,12.8,0,0,1-12.81,0L1,321.87a2.08,2.08,0,0,1-.76-.77A2.05,2.05,0,0,0,1,323.88l87.22,50.36a12.8,12.8,0,0,0,12.81,0l87.36-50.31a2,2,0,0,0,.76-2.78A2,2,0,0,1,188.41,321.91Z"/><g class="cls-18"><path class="cls-27" d="M446.65,314.24a14.52,14.52,0,0,0-14.51,0l-86.51,49.83a2,2,0,0,0,0,3.54L432.86,418a12.8,12.8,0,0,0,12.81,0L533,367.64a2,2,0,0,0,0-3.53Z"/></g><g class="cls-18"><path class="cls-28" d="M446.65,299.67a14.5,14.5,0,0,0-14.51,0l-86.51,49.83a2,2,0,0,0,0,3.53l87.23,50.36a12.8,12.8,0,0,0,12.81,0L533,353.07a2,2,0,0,0,0-3.54Z"/></g><g class="cls-18"><path class="cls-29" d="M446.65,285.09a14.52,14.52,0,0,0-14.51,0l-86.51,49.82a2,2,0,0,0,0,3.54l87.23,50.36a12.8,12.8,0,0,0,12.81,0L533,338.5a2,2,0,0,0,0-3.54Z"/></g><g class="cls-18"><path class="cls-30" d="M446.65,270.52a14.54,14.54,0,0,0-14.51,0l-86.51,49.83a2,2,0,0,0,0,3.54l87.23,50.36a12.8,12.8,0,0,0,12.81,0L533,323.93a2,2,0,0,0,0-3.54Z"/></g><path class="cls-31" d="M533,320.39l-86.37-49.87a14.54,14.54,0,0,0-14.51,0l-86.51,49.83a2,2,0,0,0-1,1.77v29.3a2,2,0,0,0,1,1.77l87.23,50.36a12.85,12.85,0,0,0,12.81,0L533,353.23a2,2,0,0,0,1-1.77v-29.3h0A2,2,0,0,0,533,320.39Z"/><g class="cls-18"><path class="cls-30" d="M446.65,270.52a14.54,14.54,0,0,0-14.51,0l-86.51,49.83a2,2,0,0,0,0,3.54l87.23,50.36a12.8,12.8,0,0,0,12.81,0L533,323.93a2,2,0,0,0,0-3.54Z"/></g><g class="cls-24"><path class="cls-25" d="M442.43,299.08a6.17,6.17,0,0,0-6.15,0l-38.76,22.33a.91.91,0,0,0,0,1.57l38.92,22.47a5.73,5.73,0,0,0,5.72,0l39-22.44a.91.91,0,0,0,0-1.58Z"/></g><path class="cls-25" d="M397.52,322.81l38.76-22.33a6.17,6.17,0,0,1,6.15,0l38.7,22.35s.06.06.09.09a.89.89,0,0,0-.09-1.49l-38.7-22.35a6.17,6.17,0,0,0-6.15,0l-38.76,22.33a.9.9,0,0,0-.08,1.49A.73.73,0,0,1,397.52,322.81Z"/><path class="cls-32" d="M533,321.91l-87.35,50.31a12.8,12.8,0,0,1-12.81,0l-87.23-50.35a2,2,0,0,1-.75-.77,2,2,0,0,0,.75,2.78l87.23,50.36a12.8,12.8,0,0,0,12.81,0L533,323.93a2,2,0,0,0,.76-2.78A2,2,0,0,1,533,321.91Z"/><path class="cls-33" d="M510.59,200V148.22c-1.21-17.66-8.19-34.49-19.92-49.88v51.82c11.73,15.38,18.71,32.21,19.92,49.87Zm-25.92-57.15V91.07A147.46,147.46,0,0,0,471,77.55v51.81a148.71,148.71,0,0,1,13.71,13.52Zm-22.2-20.42V70.65A197.52,197.52,0,0,0,445,58.75v51.81a199.7,199.7,0,0,1,17.49,11.9Zm-29.22-3.26V36.77c47.73,25.32,77.52,61.54,77.52,101.6V220.8c0-40.06-29.79-76.28-77.52-101.6Z"/><path class="cls-33" d="M346,79.63V64.74q-5.47-1-11-1.94V77.68q5.56.9,11,1.95ZM326.09,61.48V48.3q-5.65-.78-11.42-1.4V60.07q5.76.63,11.42,1.41Zm39,7.45V51q-5.24-1.3-10.61-2.46v18q5.37,1.17,10.61,2.46Zm-59.52-9.75V32.67q-5.83-.51-11.76-.85V58.34q5.93.34,11.76.84Zm-42.66-1.49V31.17q-6,.09-11.92.35V58q5.92-.27,11.92-.35Zm-21.19.85V25.19q-5.85.39-11.63.93V59.47q5.77-.54,11.63-.93Zm42.72-.64V19.76q-5.35-.2-10.77-.25h-1.28V57.65h1.28q5.42.06,10.77.24ZM221,60.42V12.7c-3.8.45-7.58.94-11.31,1.49V61.91c3.73-.55,7.51-1,11.31-1.49ZM185.43,8.62A405.1,405.1,0,0,1,273.65,0c41.43.42,80.24,6.79,114,17.69v82.43c-33.74-10.89-72.55-17.27-114-17.69a405.1,405.1,0,0,0-88.22,8.6V8.62Z"/><path class="cls-33" d="M45.18,120.43v-16.6A100,100,0,0,0,33.47,126V175.1A100,100,0,0,1,45.18,153v-16.6c1.43-2,2.94-4.09,4.53-6.09v8.95a134.22,134.22,0,0,1,9.92-11.12v-8.95c15.55-15.65,36.26-29.38,60.78-40.43v-16q-6.55,2.94-12.72,6.15-3.09,1.59-6.08,3.26A188.7,188.7,0,0,0,61,101.82l-1.4,1.39V94.26a134.22,134.22,0,0,0-9.92,11.12v9q-2.39,3-4.53,6.09Zm-14.92-.52C39.63,79.68,79,45,134.94,23.48v82.43C79,127.47,39.63,162.12,30.26,202.34V119.91Z"/><path class="cls-34" d="M59.63,103.21l1.4-1.39v16A178.13,178.13,0,0,1,90.06,95q5.56-3.54,11.55-6.86v-16q3-1.67,6.08-3.26v16q6.16-3.2,12.72-6.15v0c-24.52,11-45.23,24.78-60.78,40.43v-16ZM45.18,120.43q2.15-3.09,4.53-6.09v16c-1.59,2-3.1,4-4.53,6.09v-16Z"/><path class="cls-35" d="M107.69,68.94q6.16-3.21,12.72-6.15v16q-6.55,2.94-12.72,6.15v-16Z"/><path class="cls-35" d="M61,101.82a178.13,178.13,0,0,1,29-22.76V95a178.13,178.13,0,0,0-29,22.76v-16Z"/><path class="cls-36" d="M90.06,79.06q5.56-3.54,11.55-6.86v16q-6,3.32-11.55,6.86v-16Z"/><path class="cls-34" d="M33.47,126a100,100,0,0,1,11.71-22.12v16.6a100.19,100.19,0,0,0-11.71,22.11v16a100,100,0,0,1,11.71-22.12V153A100,100,0,0,0,33.47,175.1V126Z"/><path class="cls-35" d="M33.47,142.54a100.19,100.19,0,0,1,11.71-22.11v16a100,100,0,0,0-11.71,22.12v-16Z"/><path class="cls-34" d="M49.71,130.3a131.07,131.07,0,0,1,9.92-11.12v8.95a134.22,134.22,0,0,0-9.92,11.12V130.3Zm0-24.92a134.22,134.22,0,0,1,9.92-11.12v8.95a132.73,132.73,0,0,0-9.92,11.13v-9Z"/><path class="cls-35" d="M49.71,114.34a132.73,132.73,0,0,1,9.92-11.13v16a131.07,131.07,0,0,0-9.92,11.12v-16Z"/><path class="cls-34" d="M490.67,98.34c11.73,15.39,18.71,32.22,19.92,49.88V200c-1.21-17.66-8.19-34.49-19.92-49.87V98.34Z"/><path class="cls-25" d="M471,77.55a147.46,147.46,0,0,1,13.71,13.52v51.81A148.71,148.71,0,0,0,471,129.36V77.55Z"/><path class="cls-34" d="M445,58.75a197.52,197.52,0,0,1,17.49,11.9v51.81A199.7,199.7,0,0,0,445,110.56V58.75Z"/><path class="cls-34" d="M354.46,48.51q5.37,1.16,10.61,2.46v18q-5.24-1.29-10.61-2.46v-18Z"/><path class="cls-34" d="M334.92,62.8q5.56.89,11,1.94V79.63q-5.47-1-11-1.95V62.8Z"/><path class="cls-34" d="M314.67,46.9q5.76.62,11.42,1.4V61.48q-5.65-.78-11.42-1.41V46.9Z"/><path class="cls-34" d="M293.79,31.82q5.93.34,11.76.85V59.18q-5.83-.49-11.76-.84V31.82Z"/><path class="cls-34" d="M272.37,19.5h1.28q5.42.06,10.77.25V57.9q-5.35-.18-10.77-.24h-1.28V19.5Z"/><path class="cls-25" d="M251,31.52q5.92-.25,11.92-.35V57.69q-6,.09-11.92.35V31.52Z"/><path class="cls-34" d="M230.07,26.12q5.77-.54,11.63-.93V58.54q-5.85.39-11.63.93V26.12Z"/><path class="cls-25" d="M209.73,14.19c3.73-.55,7.51-1,11.31-1.49V60.42c-3.8.45-7.58.94-11.31,1.49V14.19Z"/><g class="cls-18"><path class="cls-37" d="M259.77,421.37a13.67,13.67,0,0,1,13.65,0l81.33,46.85a1.92,1.92,0,0,1,0,3.32l-82,47.35a12,12,0,0,1-12,0l-82.13-47.3a1.92,1.92,0,0,1,0-3.33Z"/></g><g class="cls-18"><path class="cls-38" d="M259.77,407.67a13.67,13.67,0,0,1,13.65,0l81.33,46.85a1.92,1.92,0,0,1,0,3.32l-82,47.35a12,12,0,0,1-12,0l-82.13-47.3a1.92,1.92,0,0,1,0-3.33Z"/></g><g class="cls-18"><path class="cls-39" d="M259.77,394a13.67,13.67,0,0,1,13.65,0l81.33,46.85a1.92,1.92,0,0,1,0,3.32l-82,47.35a12,12,0,0,1-12,0l-82.13-47.3a1.92,1.92,0,0,1,0-3.33Z"/></g><g class="cls-18"><path class="cls-40" d="M259.77,380.27a13.67,13.67,0,0,1,13.65,0l81.33,46.85a1.92,1.92,0,0,1,0,3.32l-82,47.35a12,12,0,0,1-12,0l-82.13-47.3a1.92,1.92,0,0,1,0-3.33Z"/></g><path class="cls-41" d="M178.57,427.15l81.2-46.88a13.67,13.67,0,0,1,13.65,0l81.33,46.85a1.88,1.88,0,0,1,1,1.66v41.1a1.89,1.89,0,0,1-1,1.66l-82,47.35a12,12,0,0,1-12,0l-82.13-47.3a1.91,1.91,0,0,1-1-1.67v-41.1h0A1.91,1.91,0,0,1,178.57,427.15Z"/><g class="cls-18"><path class="cls-42" d="M258.31,346.67a16.58,16.58,0,0,1,16.55,0l98.61,56.81a2.33,2.33,0,0,1,0,4L274,464.91a14.59,14.59,0,0,1-14.6,0l-99.58-57.36a2.32,2.32,0,0,1,0-4Z"/></g><g class="cls-18"><path class="cls-43" d="M258.31,330.06a16.56,16.56,0,0,1,16.55,0l98.61,56.8a2.34,2.34,0,0,1,0,4L274,448.3a14.64,14.64,0,0,1-14.6,0l-99.58-57.36a2.32,2.32,0,0,1,0-4Z"/></g><g class="cls-18"><path class="cls-44" d="M258.31,313.45a16.56,16.56,0,0,1,16.55,0l98.61,56.8a2.34,2.34,0,0,1,0,4L274,431.68a14.59,14.59,0,0,1-14.6,0l-99.58-57.35a2.32,2.32,0,0,1,0-4Z"/></g><g class="cls-18"><path class="cls-45" d="M258.31,296.84a16.56,16.56,0,0,1,16.55,0l98.61,56.8a2.33,2.33,0,0,1,0,4L274,415.07a14.59,14.59,0,0,1-14.6,0l-99.58-57.35a2.33,2.33,0,0,1,0-4Z"/></g><path class="cls-46" d="M159.85,353.68l98.46-56.84a16.56,16.56,0,0,1,16.55,0l98.61,56.8a2.3,2.3,0,0,1,1.16,2v49.83a2.3,2.3,0,0,1-1.16,2L274,464.91a14.59,14.59,0,0,1-14.6,0l-99.58-57.36a2.29,2.29,0,0,1-1.17-2V355.7h0A2.32,2.32,0,0,1,159.85,353.68Z"/><g class="cls-18"><path class="cls-45" d="M258.31,296.84a16.56,16.56,0,0,1,16.55,0l98.61,56.8a2.33,2.33,0,0,1,0,4L274,415.07a14.59,14.59,0,0,1-14.6,0l-99.58-57.35a2.33,2.33,0,0,1,0-4Z"/></g><path class="cls-47" d="M159.85,355.42l99.58,57.36a14.59,14.59,0,0,0,14.6,0l99.44-57.41a2.31,2.31,0,0,0,.86-.87,2.32,2.32,0,0,1-.86,3.16L274,415.07a14.59,14.59,0,0,1-14.6,0l-99.58-57.35a2.34,2.34,0,0,1-.87-3.17A2.27,2.27,0,0,0,159.85,355.42Z"/><ellipse class="cls-48" cx="266.66" cy="355.82" rx="54.29" ry="31.35"/><path class="cls-49" d="M287.32,329.24s1.32,1.38,2.69,3,5.22,3.88,6.84,4.88,9,6.62,10.57,12.16-3.74,6.26-9.16,5.3-10.48-6-11.95-7.76-6.6-5.9-13.25-9.34-2.63-8.07-2.63-8.07Z"/><path class="cls-49" d="M238,345.67a20.51,20.51,0,0,0-1.41,5.69c-.31,3.2-.76,10.13-.92,12.16A17.16,17.16,0,0,0,239,375.27c3.57,4.75,5.41,6.63,10.16,4.76s4.63-9.84,3.79-13.93a114.48,114.48,0,0,1-1.53-14.23,2.79,2.79,0,0,0-.27-1.57Z"/><path class="cls-50" d="M303.7,235.28s-1,36.52-9.52,55.91a141.12,141.12,0,0,0-6.9,37.38s1.41,3.5-.59,6.34-14.49,5.45-16.55-3.89-1.27-26.81,1-34.1-.81-27.38-.81-27.38-3.42,2.19-7.9,16.62-7.77,19.93-9.31,23.92-3,28.44-2,40.38c0,0-10.12,1.44-13-3.4s-3.91-29.86-3.17-37.84,4.08-33.54,3.62-41.45-2.1-14.33-.29-22.23,55.2-25.44,55.2-25.44Z"/><path class="cls-49" d="M238.55,267.77c-.45-7.9-2.1-14.33-.29-22.23.68-3,8.65-7.3,18.33-11.55,16.34-1.49,37.07-3.22,38.5-3a53.06,53.06,0,0,1,7.46,2.61l1.15,1.69s-.07,2.22-.28,5.85c-3.82,1.14-11.15,0-11.15,0-1,2.56-7.4,11.67-15.32,15.6s-31.1,2.58-32.43,4.08-1.58,21.49-1.44,24-2.18,18.55-4.34,32.7c-2.12,13.93,1.11,30.85,1.22,31.39a5.71,5.71,0,0,1-1.86-1.83c-2.93-4.84-3.91-29.86-3.17-37.84S239,275.68,238.55,267.77Z"/><path class="cls-51" d="M285.82,115.82s11.85,2.7,15.84,3.64a2,2,0,0,1,1.44,1.25c1.15,2.91,4,12,1.86,25.17-2.67,16.24-1.83,27.18-1.83,27.18l5.48,28.51s6.89,27.17,6.3,27.91-15.86,12.36-20.64,10.73-3.2-4.34-3.2-4.34-3.86,19.68-21,19.49-31.09-.13-34-7.05.8-36,3.81-47.5,10.19-34.46,10.19-34.46L225,138.62l21.42-16.36s5.12-9.51,7.22-10.72,3.2-.18,3.2-.18Z"/><path class="cls-52" d="M294,233.94c0,1,.56,2.45,3.64,3.51,3.32,1.14,11.46-3.81,16.8-7.53-2.67,2.21-15.78,11.78-20.15,10.29a8,8,0,0,1-2.14-1.08A34.26,34.26,0,0,0,294,233.94Z"/><path class="cls-53" d="M236.23,246c3.06,7.3,17.82,7.24,35.87,7.44a19.29,19.29,0,0,0,11.23-3.24,18.22,18.22,0,0,1-13.23,5.15c-17.11-.18-31.09-.13-34-7.05-.95-2.27-1.19-6.93-1-12.57C235.08,240.32,235.4,244,236.23,246Z"/><path class="cls-54" d="M254.14,111.31s-4.37,5.29,1.92,12.43c3.88,4.4,10.55,13.89,16.23,23.74,3.54,6.15,6.82,9.43,8.68,14.71,0,0,.26-6.28.51-16,.24-9.15.36-18.66-.05-21.06C280.59,120.23,259,108.91,254.14,111.31Z"/><path class="cls-55" d="M270.51,127.23s2.24,1.39,3,1.28,3.26-2.53,3.26-2.53,6.21-.11,6.89-2.77a55.9,55.9,0,0,1,1.75-6.73c.63-1.38,3.31-8,3.33-10.71s-.08-7.51,1.08-10.06,2.73-28-21.88-27.32-17,26.28-17,26.28-1.8.77-.71,4.06,1.33,3.63,1.89,5.26a7.24,7.24,0,0,0,2.39,4l.41,3a12.17,12.17,0,0,0,1.89,9.13C259.91,124.66,270.51,127.23,270.51,127.23Z"/><path class="cls-50" d="M302.33,119.75s2.63.39,11.14,21.82c4.75,12,12.09,24.33,13.64,33.21s.69,18.38-1.07,19.05-32.29,12.1-41.86,15.71a.89.89,0,0,1-1.2-.69l-2.65-14.78,19-7.33s3.62-4.42,7-6.08c0,0-3.81-7-3.57-8.93s-.33-21.73,1.89-29.8S302.33,119.75,302.33,119.75Z"/><path class="cls-55" d="M291.21,176.37s2.62-1.76,3.26-2,4.15-1.44,4.81-1.74a13.41,13.41,0,0,1,3.56,0,1.12,1.12,0,0,1,.87.58c.8,1.5,3.05,5.86,2.8,7.52,0,0-6.32,4-7,5.78l-1,.21S294.24,177.68,291.21,176.37Z"/><path class="cls-50" d="M239.91,200.81c.73-2.77,1.7-6.2,2.75-9.82l38.45,16.49a40.55,40.55,0,0,1-31.68,13.24,26.55,26.55,0,0,1-12.5-3.95A156.24,156.24,0,0,1,239.91,200.81Z"/><path class="cls-50" d="M225,138.62S235.18,140,243.38,153a196.21,196.21,0,0,1,14.16,28l.28,1.69a6.85,6.85,0,0,0,9.54,5.13c8.65-3.87,21.46-9.71,23.85-11.46A22,22,0,0,1,301,190.61c1.67,8,1.25,8,1.25,8s-34.15,15.93-47.34,15.78S225,170.88,223.11,161.92,219.24,141.15,225,138.62Z"/><path class="cls-56" d="M225,138.62S235.18,140,243.38,153a196.21,196.21,0,0,1,14.16,28l.28,1.69a6.85,6.85,0,0,0,9.54,5.13c8.65-3.87,21.46-9.71,23.85-11.46A22,22,0,0,1,301,190.61c1.67,8,1.25,8,1.25,8s-34.15,15.93-47.34,15.78S225,170.88,223.11,161.92,219.24,141.15,225,138.62Z"/><path class="cls-51" d="M262.45,189.85s-4.3,4-6.18,1.82-1.32-2.45-1.32-2.45-3.88,0-4.35-2.47-2.38-1.14-2.49-3.85,3.14-2.15,3.14-2.15Z"/><path class="cls-55" d="M267.66,187.69s-1.19-1.1-2.71-2.39-4-6.65-4.42-7.12-5.57-4.42-8-4.49-.64,2.71-.07,3.1,3,1.6,3,1.6,2.49,2.1,2.78,2.4-6.94-.49-8.09.21a2,2,0,0,0-.07,3.05,2.91,2.91,0,0,0,1.43.49,2.51,2.51,0,0,0,1.35,3.18c2.17,1,2.67.44,2.67.44s.18,3.76,3.76,3Z"/><path class="cls-57" d="M290.38,82.68s3.22,10.23-5.24,7.32S269,82.22,266.38,84.07c-2,1.41-1.93,5.74-1.77,7.73a3,3,0,0,1-.51,1.91l-2.51,3.64a2.76,2.76,0,0,0-.48,1.39l-.18,2.53a1.27,1.27,0,0,1-1.2,1.18l-.58,0a1.28,1.28,0,0,1-1.32-1l-.65-3.73s-2-5-6.2-3c0,0-2.82-3.78-1.88-11.86S253.66,66.32,269.52,65,290.38,82.68,290.38,82.68Z"/><path class="cls-58" d="M266.14,136.23l2.37-1.84a12.92,12.92,0,0,1,3.06,3.76c.85,1.93,0,8.08,0,8.08l.73,1.25.89-1.63.75-7.27s-.81-5.37-.89-5.51-4.58.48-4.58.48A9.32,9.32,0,0,0,266.14,136.23Z"/><path class="cls-58" d="M277.55,129s2.54.16,3.68,1.11c0,0-2.66.13-3.08.18S277.55,129,277.55,129Z"/><path class="cls-50" d="M272.72,129.57l-4.26,4s3.74,1.72,4.79,5.06c0,0,4.63.86,5.05-.82s0-5.9.54-7.77S272.72,129.57,272.72,129.57Z"/><path class="cls-50" d="M278.13,137.7a23.77,23.77,0,0,0,1.65,4.92c.87,1.44,1.75,3,1.75,3l-.1,20.43s-7.51-15.49-9.14-18.62c0,0,.25-7.46,1-8.87S278.13,137.7,278.13,137.7Z"/><path class="cls-59" d="M258,107.52c4.93,14.23,18.82,18.46,18.82,18.46s-2.49,2.41-3.26,2.53-3-1.28-3-1.28-10.6-2.57-13.66-7.07A12.17,12.17,0,0,1,255,111l-.41-3A3.37,3.37,0,0,0,258,107.52Z"/><path class="cls-50" d="M246.67,124.18s1.94,6.72,2.2,7,4.89-.29,4.89-.29l-2.25,4.27s23.37,25.07,28.21,38.55c0,0-11.06-17.09-30.52-37.5L252,132l-4.77.94Z"/><path class="cls-50" d="M285.05,118.25l1.24,1.42L284.84,121l4.32,3.9s1.32,27.41-4,45.58c0,0,7.17-16.66,5.54-46.33L286.06,121l1.54-1.5Z"/><path class="cls-49" d="M270.33,269.54l-.16.13,6.05-6.44c-2.79,3.94.42,22,.76,26.12S273.75,302,272.41,312s1.4,24.23,1.41,24.27a7.69,7.69,0,0,1-3.68-5.26c-2.07-9.34-1.27-26.81,1-34.1S270.33,269.54,270.33,269.54Z"/><path class="cls-60" d="M254.87,214.4c-13.18-.16-29.92-43.52-31.76-52.48-.31-1.5-.62-3.07-.9-4.67,0,.13,3.47,9.49,6.76,17.79s20.95,33.69,30,35.34c8.12,1.49,37.34-12.15,43-14.84.52,3.05.3,3.08.3,3.08S268.06,214.55,254.87,214.4Z"/><path class="cls-61" d="M259.15,102.49a1.28,1.28,0,0,1-1.32-1l-.65-3.73s-2-5-6.2-3c0,0-2.66-3.59-1.94-11.23,4.68,7,15.06,10.27,15.06,10.27l-2.51,3.64a2.76,2.76,0,0,0-.48,1.39l-.18,2.53a1.27,1.27,0,0,1-1.2,1.18Z"/><path class="cls-33" d="M104.74,309.8V295.87q4.19,2.25,8.56,4.37v13.93q-4.36-2.13-8.56-4.37ZM77.31,292.4V266.73q3.48,2.63,7.17,5.14v25.67q-3.69-2.52-7.17-5.14Zm13.08,9V271.16q3.84,2.43,7.88,4.77V306.2q-4-2.32-7.88-4.77ZM55.31,272.52V238.93q2.67,2.94,5.58,5.79v33.59q-2.91-2.85-5.58-5.79Zm10.28,10.22V246.36q3.09,2.77,6.4,5.48v36.39q-3.31-2.7-6.4-5.49ZM39.38,250.55V211.1c1.18,2.14,2.46,4.25,3.81,6.34V256.9c-1.35-2.1-2.63-4.21-3.81-6.35Zm7.16,11.22V210.45c1.49,2.05,3.07,4.08,4.72,6.08v51.32c-1.65-2-3.23-4-4.72-6.08ZM33.9,238.91V181c.86,2.21,1.82,4.4,2.86,6.57v58c-1-2.17-2-4.37-2.86-6.58Zm97,12.87c-55.15-22.22-93.25-57.32-101.23-97.53v82.43c8,40.21,46.08,75.31,101.23,97.53V251.78Z"/><path class="cls-33" d="M292.6,343.34V324.75q14.23-.78,28-2.48v18.59q-13.71,1.69-28,2.48Zm-44.59.09V309.54q8.52.43,17.22.52,5.94.06,11.82,0V343.9q-5.88.11-11.82.05-8.7-.09-17.22-.52ZM205,339V287.17q13.48,2.13,27.58,3.38v51.81Q218.52,341.13,205,339Zm130.23-.22V284q13.38-2.18,26.12-5.19v54.72q-12.72,3-26.12,5.19Zm48.11-78.28c-35.14,10.81-75.43,16.77-118.13,16.34a401.49,401.49,0,0,1-84.32-9.59v82.43a401.49,401.49,0,0,0,84.32,9.59c42.7.43,83-5.53,118.13-16.34V260.48Z"/><path class="cls-33" d="M442.57,284.05v-16c38.47-22.71,63.51-53,67.61-86.69v16c-4.1,33.69-29.14,64-67.61,86.68Zm68.16-60.78V140.84c-1.22,40.32-32.39,76.31-81.12,101.12v82.43c48.73-24.81,79.9-60.8,81.12-101.12Z"/><path class="cls-34" d="M510.18,181.4c-4.1,33.69-29.14,64-67.61,86.69v16c38.47-22.71,63.51-53,67.61-86.68v-16Z"/><path class="cls-25" d="M232.6,290.55q-14.08-1.23-27.58-3.38V339q13.48,2.14,27.58,3.38V290.55Z"/><path class="cls-25" d="M320.56,322.27q-13.71,1.69-28,2.48v18.59q14.23-.76,28-2.48V322.27Z"/><path class="cls-25" d="M361.37,278.85q-12.72,3-26.12,5.19v54.72q13.38-2.17,26.12-5.19V278.85Z"/><path class="cls-34" d="M277.05,310q-5.88.11-11.82,0-8.7-.09-17.22-.52v33.89q8.52.44,17.22.52,5.94.06,11.82-.05V310Z"/><path class="cls-25" d="M36.76,187.52c-1-2.17-2-4.36-2.86-6.57v58c.86,2.21,1.82,4.41,2.86,6.58v-58Z"/><path class="cls-25" d="M43.19,217.44c-1.35-2.09-2.63-4.2-3.81-6.34v39.45c1.18,2.14,2.46,4.25,3.81,6.35V217.44Z"/><path class="cls-34" d="M51.26,216.53c-1.65-2-3.23-4-4.72-6.08v51.32c1.49,2.05,3.07,4.08,4.72,6.08V216.53Z"/><path class="cls-25" d="M60.89,244.72q-2.91-2.85-5.58-5.79v33.59q2.67,2.94,5.58,5.79V244.72Z"/><path class="cls-34" d="M72,251.84q-3.31-2.7-6.4-5.48v36.38q3.09,2.79,6.4,5.49V251.84Z"/><path class="cls-34" d="M84.48,271.87q-3.69-2.52-7.17-5.14V292.4q3.48,2.61,7.17,5.14V271.87Z"/><path class="cls-34" d="M98.27,275.93q-4-2.34-7.88-4.77v30.27q3.84,2.44,7.88,4.77V275.93Z"/><path class="cls-34" d="M113.3,300.24q-4.36-2.12-8.56-4.37V309.8q4.19,2.25,8.56,4.37V300.24Z"/></g></g></svg>